<svg width="62" height="62" viewBox="0 0 62 62" fill="none" xmlns="http://www.w3.org/2000/svg">
<g clip-path="url(#clip0_633_22386)">
<path d="M49.7558 17.5172L47.1192 14.45C44.8836 12.1019 42.1937 10.2333 39.2131 8.95787C36.2325 7.68241 33.0236 7.02674 29.7816 7.03078C16.5486 7.03078 5.8125 17.7669 5.8125 30.9998C5.8125 44.2328 16.5486 54.9689 29.7816 54.9689C34.7389 54.9686 39.5743 53.4318 43.6224 50.5702C47.6704 47.7086 50.7321 43.6628 52.3861 38.9895" stroke="black" stroke-width="3" stroke-miterlimit="10" stroke-linecap="round"/>
<path d="M57.7455 11.203V25.0077C57.7455 25.5374 57.535 26.0455 57.1604 26.4201C56.7858 26.7947 56.2778 27.0051 55.748 27.0051H41.9434C40.1632 27.0051 39.2718 24.8541 40.5302 23.5958L54.3361 9.78984C55.5945 8.52896 57.7455 9.42281 57.7455 11.203Z" fill="black"/>
</g>
<defs>
<clipPath id="clip0_633_22386">
<rect width="62" height="62" fill="white"/>
</clipPath>
</defs>
</svg>
