<svg width="67" height="66" viewBox="0 0 67 66" fill="none" xmlns="http://www.w3.org/2000/svg">
<path d="M41.5119 59.08L35.1996 52.7678C34.9574 52.5256 34.8213 52.197 34.8213 51.8545C34.8213 51.5119 34.9574 51.1834 35.1996 50.9411L41.5119 44.6289C42.3259 43.8149 43.717 44.3909 43.717 45.5417L43.717 58.1673C43.7181 59.3192 42.3259 59.894 41.5119 59.08Z" fill="white"/>
<path d="M6.92041 51.8545C7.42117 51.8545 20.2037 51.8545 26.5323 51.8545" stroke="white" stroke-width="4" stroke-linecap="round" stroke-linejoin="round"/>
<path d="M6.7395 12.2329H60.2294M6.7395 31.95H50.4684C53.9794 32.0194 61.0015 34.2232 61.0015 42.483C61.0015 50.7428 54.3723 52.5538 51.0577 52.4268H43.883" stroke="white" stroke-width="4" stroke-linecap="round" stroke-linejoin="round"/>
</svg>
